{
    "accessors" : [
        {
            "bufferView" : 0,
            "componentType" : 5123,
            "count" : 303,
            "max" : [
                302
            ],
            "min" : [
                0
            ],
            "type" : "SCALAR"
        },
        {
            "bufferView" : 1,
            "componentType" : 5126,
            "count" : 303,
            "max" : [
                0.12669654190540314,
                0.01050121895968914,
                0.05930902808904648
            ],
            "min" : [
                -0.0344933345913887,
                -0.1502113789319992,
                -0.10963717103004456
            ],
            "type" : "VEC3"
        },
        {
            "bufferView" : 2,
            "componentType" : 5126,
            "count" : 303,
            "max" : [
                0.9866847395896912,
                0.9799947738647461,
                0.35661783814430237
            ],
            "min" : [
                -0.8540804386138916,
                -0.9862737655639648,
                -0.9960378408432007
            ],
            "type" : "VEC3"
        },
        {
            "bufferView" : 3,
            "componentType" : 5126,
            "count" : 303,
            "max" : [
                0.9955653548240662,
                0.9986757040023804,
                0.7538179755210876,
                -1.0
            ],
            "min" : [
                -0.9885699152946472,
                -0.9990546107292175,
                -0.6742047667503357,
                -1.0
            ],
            "type" : "VEC4"
        },
        {
            "bufferView" : 4,
            "componentType" : 5126,
            "count" : 303,
            "max" : [
                0.7222360968589783,
                0.3628808856010437
            ],
            "min" : [
                0.5969675779342651,
                0.2119007110595703
            ],
            "type" : "VEC2"
        },
        {
            "bufferView" : 5,
            "componentType" : 5123,
            "count" : 1311,
            "max" : [
                1238
            ],
            "min" : [
                0
            ],
            "type" : "SCALAR"
        },
        {
            "bufferView" : 6,
            "componentType" : 5126,
            "count" : 1239,
            "max" : [
                0.22288702428340912,
                0.09979601949453354,
                0.11480812728404999
            ],
            "min" : [
                -0.09271585941314697,
                -0.2604562044143677,
                -0.14127571880817413
            ],
            "type" : "VEC3"
        },
        {
            "bufferView" : 7,
            "componentType" : 5126,
            "count" : 1239,
            "max" : [
                0.9896568059921265,
                0.9992955923080444,
                0.9993431568145752
            ],
            "min" : [
                -0.9999532103538513,
                -0.9833407998085022,
                -0.9996256232261658
            ],
            "type" : "VEC3"
        },
        {
            "bufferView" : 8,
            "componentType" : 5126,
            "count" : 1239,
            "max" : [
                0.9959821701049805,
                0.9986202716827393,
                0.8233663439750671,
                -1.0
            ],
            "min" : [
                -0.9980114698410034,
                -0.9997448921203613,
                -0.8642449378967285,
                -1.0
            ],
            "type" : "VEC4"
        },
        {
            "bufferView" : 9,
            "componentType" : 5126,
            "count" : 1239,
            "max" : [
                0.7222360968589783,
                0.6309202909469604
            ],
            "min" : [
                0.22143201529979706,
                0.15721291303634644
            ],
            "type" : "VEC2"
        }
    ],
    "asset" : {
        "generator" : "Khronos Blender glTF 2.0 exporter",
        "version" : "2.0"
    },
    "bufferViews" : [
        {
            "buffer" : 0,
            "byteLength" : 606,
            "byteOffset" : 0,
            "target" : 34963
        },
        {
            "buffer" : 0,
            "byteLength" : 3636,
            "byteOffset" : 608,
            "target" : 34962
        },
        {
            "buffer" : 0,
            "byteLength" : 3636,
            "byteOffset" : 4244,
            "target" : 34962
        },
        {
            "buffer" : 0,
            "byteLength" : 4848,
            "byteOffset" : 7880,
            "target" : 34962
        },
        {
            "buffer" : 0,
            "byteLength" : 2424,
            "byteOffset" : 12728,
            "target" : 34962
        },
        {
            "buffer" : 0,
            "byteLength" : 2622,
            "byteOffset" : 15152,
            "target" : 34963
        },
        {
            "buffer" : 0,
            "byteLength" : 14868,
            "byteOffset" : 17776,
            "target" : 34962
        },
        {
            "buffer" : 0,
            "byteLength" : 14868,
            "byteOffset" : 32644,
            "target" : 34962
        },
        {
            "buffer" : 0,
            "byteLength" : 19824,
            "byteOffset" : 47512,
            "target" : 34962
        },
        {
            "buffer" : 0,
            "byteLength" : 9912,
            "byteOffset" : 67336,
            "target" : 34962
        }
    ],
    "buffers" : [
        {
            "byteLength" : 77248,
            "uri" : "flower-small.bin"
        }
    ],
    "materials" : [
        {
            "name" : "default.001",
            "pbrMetallicRoughness" : {
                "baseColorFactor" : [
                    0.6400000190734865,
                    0.6400000190734865,
                    0.6400000190734865,
                    1.0
                ],
                "metallicFactor" : 0.0
            }
        },
        {
            "name" : "Material.010",
            "pbrMetallicRoughness" : {
                "baseColorFactor" : [
                    0.800000011920929,
                    0.11301064659670956,
                    0.15025664791847237,
                    1.0
                ],
                "metallicFactor" : 0.0
            }
        },
        {
            "name" : "Material.011",
            "pbrMetallicRoughness" : {
                "baseColorFactor" : [
                    0.640000066757203,
                    0.43554788284820134,
                    0.10735657375092167,
                    1.0
                ],
                "metallicFactor" : 0.0
            }
        }
    ],
    "meshes" : [
        {
            "name" : "flower-small-mesh",
            "primitives" : [
                {
                    "attributes" : {
                        "NORMAL" : 2,
                        "POSITION" : 1,
                        "TANGENT" : 3,
                        "TEXCOORD_0" : 4
                    },
                    "indices" : 0,
                    "material" : 2
                },
                {
                    "attributes" : {
                        "NORMAL" : 7,
                        "POSITION" : 6,
                        "TANGENT" : 8,
                        "TEXCOORD_0" : 9
                    },
                    "indices" : 5,
                    "material" : 1
                }
            ]
        }
    ],
    "nodes" : [
        {
            "mesh" : 0,
            "name" : "flower-small",
            "rotation" : [
                0.8764327764511108,
                0.422908216714859,
                -0.11191336065530777,
                0.2012203484773636
            ],
            "scale" : [
                1.0,
                0.9999999403953552,
                0.9999999403953552
            ],
            "translation" : [
                1.2616591453552246,
                1.7182540893554688,
                4.726650714874268
            ]
        }
    ],
    "scene" : 0,
    "scenes" : [
        {
            "name" : "World",
            "nodes" : [
                0
            ]
        }
    ]
}
