{
    "accessors" : [
        {
            "bufferView" : 0,
            "componentType" : 5123,
            "count" : 303,
            "max" : [
                302
            ],
            "min" : [
                0
            ],
            "type" : "SCALAR"
        },
        {
            "bufferView" : 1,
            "componentType" : 5126,
            "count" : 303,
            "max" : [
                2.859321355819702,
                0.23699378967285156,
                1.3384990692138672
            ],
            "min" : [
                -0.7784547805786133,
                -3.390003204345703,
                -2.474315643310547
            ],
            "type" : "VEC3"
        },
        {
            "bufferView" : 2,
            "componentType" : 5126,
            "count" : 303,
            "max" : [
                0.9866847395896912,
                0.9799948334693909,
                0.3566184639930725
            ],
            "min" : [
                -0.8540799617767334,
                -0.9862738847732544,
                -0.9960377812385559
            ],
            "type" : "VEC3"
        },
        {
            "bufferView" : 3,
            "componentType" : 5126,
            "count" : 303,
            "max" : [
                0.9955653548240662,
                0.9986757040023804,
                0.7538172602653503,
                -1.0
            ],
            "min" : [
                -0.9885699152946472,
                -0.9990546703338623,
                -0.6742044687271118,
                -1.0
            ],
            "type" : "VEC4"
        },
        {
            "bufferView" : 4,
            "componentType" : 5126,
            "count" : 303,
            "max" : [
                0.7222360968589783,
                0.3628808856010437
            ],
            "min" : [
                0.5969675779342651,
                0.2119007110595703
            ],
            "type" : "VEC2"
        },
        {
            "bufferView" : 5,
            "componentType" : 5123,
            "count" : 1311,
            "max" : [
                1238
            ],
            "min" : [
                0
            ],
            "type" : "SCALAR"
        },
        {
            "bufferView" : 6,
            "componentType" : 5126,
            "count" : 1239,
            "max" : [
                5.0301737785339355,
                2.252218246459961,
                2.591014862060547
            ],
            "min" : [
                -2.0924363136291504,
                -5.878032684326172,
                -3.1883411407470703
            ],
            "type" : "VEC3"
        },
        {
            "bufferView" : 7,
            "componentType" : 5126,
            "count" : 1239,
            "max" : [
                0.9896568059921265,
                0.9992955923080444,
                0.99934321641922
            ],
            "min" : [
                -0.9999532699584961,
                -0.9833407402038574,
                -0.999625563621521
            ],
            "type" : "VEC3"
        },
        {
            "bufferView" : 8,
            "componentType" : 5126,
            "count" : 1239,
            "max" : [
                0.99598228931427,
                0.9986202716827393,
                0.8233663439750671,
                -1.0
            ],
            "min" : [
                -0.9980115294456482,
                -0.9997448921203613,
                -0.8642444610595703,
                -1.0
            ],
            "type" : "VEC4"
        },
        {
            "bufferView" : 9,
            "componentType" : 5126,
            "count" : 1239,
            "max" : [
                0.7222360968589783,
                0.6309202909469604
            ],
            "min" : [
                0.22143201529979706,
                0.15721291303634644
            ],
            "type" : "VEC2"
        }
    ],
    "asset" : {
        "generator" : "Khronos Blender glTF 2.0 exporter",
        "version" : "2.0"
    },
    "bufferViews" : [
        {
            "buffer" : 0,
            "byteLength" : 606,
            "byteOffset" : 0,
            "target" : 34963
        },
        {
            "buffer" : 0,
            "byteLength" : 3636,
            "byteOffset" : 608,
            "target" : 34962
        },
        {
            "buffer" : 0,
            "byteLength" : 3636,
            "byteOffset" : 4244,
            "target" : 34962
        },
        {
            "buffer" : 0,
            "byteLength" : 4848,
            "byteOffset" : 7880,
            "target" : 34962
        },
        {
            "buffer" : 0,
            "byteLength" : 2424,
            "byteOffset" : 12728,
            "target" : 34962
        },
        {
            "buffer" : 0,
            "byteLength" : 2622,
            "byteOffset" : 15152,
            "target" : 34963
        },
        {
            "buffer" : 0,
            "byteLength" : 14868,
            "byteOffset" : 17776,
            "target" : 34962
        },
        {
            "buffer" : 0,
            "byteLength" : 14868,
            "byteOffset" : 32644,
            "target" : 34962
        },
        {
            "buffer" : 0,
            "byteLength" : 19824,
            "byteOffset" : 47512,
            "target" : 34962
        },
        {
            "buffer" : 0,
            "byteLength" : 9912,
            "byteOffset" : 67336,
            "target" : 34962
        }
    ],
    "buffers" : [
        {
            "byteLength" : 77248,
            "uri" : "flower.bin"
        }
    ],
    "materials" : [
        {
            "name" : "default.001",
            "pbrMetallicRoughness" : {
                "baseColorFactor" : [
                    0.6400000190734865,
                    0.6400000190734865,
                    0.6400000190734865,
                    1.0
                ],
                "metallicFactor" : 0.0
            }
        },
        {
            "name" : "Material.010",
            "pbrMetallicRoughness" : {
                "baseColorFactor" : [
                    0.800000011920929,
                    0.11301064659670956,
                    0.15025664791847237,
                    1.0
                ],
                "metallicFactor" : 0.0
            }
        },
        {
            "name" : "Material.011",
            "pbrMetallicRoughness" : {
                "baseColorFactor" : [
                    0.640000066757203,
                    0.43554788284820134,
                    0.10735657375092167,
                    1.0
                ],
                "metallicFactor" : 0.0
            }
        }
    ],
    "meshes" : [
        {
            "name" : "flower-mesh",
            "primitives" : [
                {
                    "attributes" : {
                        "NORMAL" : 2,
                        "POSITION" : 1,
                        "TANGENT" : 3,
                        "TEXCOORD_0" : 4
                    },
                    "indices" : 0,
                    "material" : 2
                },
                {
                    "attributes" : {
                        "NORMAL" : 7,
                        "POSITION" : 6,
                        "TANGENT" : 8,
                        "TEXCOORD_0" : 9
                    },
                    "indices" : 5,
                    "material" : 1
                }
            ]
        }
    ],
    "nodes" : [
        {
            "mesh" : 0,
            "name" : "flower",
            "rotation" : [
                0.8764327764511108,
                0.4229082465171814,
                -0.11191343516111374,
                0.2012203484773636
            ],
            "scale" : [
                0.04431000351905823,
                0.04431010037660599,
                0.04431010037660599
            ],
            "translation" : [
                -1.8063397407531738,
                1.9122750759124756,
                4.344305515289307
            ]
        }
    ],
    "scene" : 0,
    "scenes" : [
        {
            "name" : "World",
            "nodes" : [
                0
            ]
        }
    ]
}
