{
    "accessors" : [
        {
            "bufferView" : 0,
            "componentType" : 5123,
            "count" : 303,
            "max" : [
                302
            ],
            "min" : [
                0
            ],
            "type" : "SCALAR"
        },
        {
            "bufferView" : 1,
            "componentType" : 5126,
            "count" : 303,
            "max" : [
                0.09681972861289978,
                0.17105957865715027,
                0.049019210040569305
            ],
            "min" : [
                -0.0619962140917778,
                0.002343284199014306,
                -0.11089996248483658
            ],
            "type" : "VEC3"
        },
        {
            "bufferView" : 2,
            "componentType" : 5126,
            "count" : 303,
            "max" : [
                0.7342681884765625,
                0.9763674139976501,
                0.9976189732551575
            ],
            "min" : [
                -0.997948944568634,
                -0.6016992926597595,
                -0.9811877012252808
            ],
            "type" : "VEC3"
        },
        {
            "bufferView" : 3,
            "componentType" : 5126,
            "count" : 303,
            "max" : [
                0.5130698680877686,
                0.859868049621582,
                0.9947088360786438,
                -1.0
            ],
            "min" : [
                -0.8993915319442749,
                -0.8892070651054382,
                -0.987061619758606,
                -1.0
            ],
            "type" : "VEC4"
        },
        {
            "bufferView" : 4,
            "componentType" : 5126,
            "count" : 303,
            "max" : [
                0.7222360968589783,
                0.3628808856010437
            ],
            "min" : [
                0.5969675779342651,
                0.2119007110595703
            ],
            "type" : "VEC2"
        },
        {
            "bufferView" : 5,
            "componentType" : 5123,
            "count" : 1311,
            "max" : [
                1238
            ],
            "min" : [
                0
            ],
            "type" : "SCALAR"
        },
        {
            "bufferView" : 6,
            "componentType" : 5126,
            "count" : 1239,
            "max" : [
                0.1432378888130188,
                0.23129446804523468,
                0.156076118350029
            ],
            "min" : [
                -0.1526125967502594,
                -0.0394069142639637,
                -0.19789192080497742
            ],
            "type" : "VEC3"
        },
        {
            "bufferView" : 7,
            "componentType" : 5126,
            "count" : 1239,
            "max" : [
                0.9974842071533203,
                0.9864680171012878,
                0.991195023059845
            ],
            "min" : [
                -0.983466386795044,
                -0.9839163422584534,
                -0.995349645614624
            ],
            "type" : "VEC3"
        },
        {
            "bufferView" : 8,
            "componentType" : 5126,
            "count" : 1239,
            "max" : [
                0.513334333896637,
                0.9677485227584839,
                0.9978480935096741,
                -1.0
            ],
            "min" : [
                -0.976050853729248,
                -0.9996683597564697,
                -0.9997198581695557,
                -1.0
            ],
            "type" : "VEC4"
        },
        {
            "bufferView" : 9,
            "componentType" : 5126,
            "count" : 1239,
            "max" : [
                0.7222360968589783,
                0.6309202909469604
            ],
            "min" : [
                0.22143201529979706,
                0.15721291303634644
            ],
            "type" : "VEC2"
        }
    ],
    "asset" : {
        "generator" : "Khronos Blender glTF 2.0 exporter",
        "version" : "2.0"
    },
    "bufferViews" : [
        {
            "buffer" : 0,
            "byteLength" : 606,
            "byteOffset" : 0,
            "target" : 34963
        },
        {
            "buffer" : 0,
            "byteLength" : 3636,
            "byteOffset" : 608,
            "target" : 34962
        },
        {
            "buffer" : 0,
            "byteLength" : 3636,
            "byteOffset" : 4244,
            "target" : 34962
        },
        {
            "buffer" : 0,
            "byteLength" : 4848,
            "byteOffset" : 7880,
            "target" : 34962
        },
        {
            "buffer" : 0,
            "byteLength" : 2424,
            "byteOffset" : 12728,
            "target" : 34962
        },
        {
            "buffer" : 0,
            "byteLength" : 2622,
            "byteOffset" : 15152,
            "target" : 34963
        },
        {
            "buffer" : 0,
            "byteLength" : 14868,
            "byteOffset" : 17776,
            "target" : 34962
        },
        {
            "buffer" : 0,
            "byteLength" : 14868,
            "byteOffset" : 32644,
            "target" : 34962
        },
        {
            "buffer" : 0,
            "byteLength" : 19824,
            "byteOffset" : 47512,
            "target" : 34962
        },
        {
            "buffer" : 0,
            "byteLength" : 9912,
            "byteOffset" : 67336,
            "target" : 34962
        }
    ],
    "buffers" : [
        {
            "byteLength" : 77248,
            "uri" : "flower-large.bin"
        }
    ],
    "materials" : [
        {
            "name" : "default.001",
            "pbrMetallicRoughness" : {
                "baseColorFactor" : [
                    0.6400000190734865,
                    0.6400000190734865,
                    0.6400000190734865,
                    1.0
                ],
                "metallicFactor" : 0.0
            }
        },
        {
            "name" : "Material.010",
            "pbrMetallicRoughness" : {
                "baseColorFactor" : [
                    0.800000011920929,
                    0.11301064659670956,
                    0.15025664791847237,
                    1.0
                ],
                "metallicFactor" : 0.0
            }
        },
        {
            "name" : "Material.011",
            "pbrMetallicRoughness" : {
                "baseColorFactor" : [
                    0.640000066757203,
                    0.43554788284820134,
                    0.10735657375092167,
                    1.0
                ],
                "metallicFactor" : 0.0
            }
        }
    ],
    "meshes" : [
        {
            "name" : "flower-large-mesh",
            "primitives" : [
                {
                    "attributes" : {
                        "NORMAL" : 2,
                        "POSITION" : 1,
                        "TANGENT" : 3,
                        "TEXCOORD_0" : 4
                    },
                    "indices" : 0,
                    "material" : 2
                },
                {
                    "attributes" : {
                        "NORMAL" : 7,
                        "POSITION" : 6,
                        "TANGENT" : 8,
                        "TEXCOORD_0" : 9
                    },
                    "indices" : 5,
                    "material" : 1
                }
            ]
        }
    ],
    "nodes" : [
        {
            "mesh" : 0,
            "name" : "flower-large",
            "translation" : [
                -5.184393882751465,
                2.0430312156677246,
                2.605889081954956
            ]
        }
    ],
    "scene" : 0,
    "scenes" : [
        {
            "name" : "World",
            "nodes" : [
                0
            ]
        }
    ]
}
