{
    "accessors" : [
        {
            "bufferView" : 0,
            "componentType" : 5123,
            "count" : 378,
            "max" : [
                377
            ],
            "min" : [
                0
            ],
            "type" : "SCALAR"
        },
        {
            "bufferView" : 1,
            "componentType" : 5126,
            "count" : 378,
            "max" : [
                -77.54603576660156,
                120.34783935546875,
                -63.8957405090332
            ],
            "min" : [
                -104.34954833984375,
                101.2964096069336,
                -86.750244140625
            ],
            "type" : "VEC3"
        },
        {
            "bufferView" : 2,
            "componentType" : 5126,
            "count" : 378,
            "max" : [
                0.9834120273590088,
                0.9876537919044495,
                0.9930321574211121
            ],
            "min" : [
                -0.9973962903022766,
                -0.9736158847808838,
                -0.9972296953201294
            ],
            "type" : "VEC3"
        },
        {
            "bufferView" : 3,
            "componentType" : 5126,
            "count" : 378,
            "max" : [
                0.9652239084243774,
                0.997150182723999,
                0.7123550772666931,
                -1.0
            ],
            "min" : [
                -0.9996756911277771,
                -0.9908733367919922,
                -0.6985792517662048,
                -1.0
            ],
            "type" : "VEC4"
        },
        {
            "bufferView" : 4,
            "componentType" : 5126,
            "count" : 378,
            "max" : [
                0.9818912744522095,
                0.9544315338134766
            ],
            "min" : [
                0.2803431451320648,
                0.05743527412414551
            ],
            "type" : "VEC2"
        }
    ],
    "asset" : {
        "generator" : "Khronos Blender glTF 2.0 exporter",
        "version" : "2.0"
    },
    "bufferViews" : [
        {
            "buffer" : 0,
            "byteLength" : 756,
            "byteOffset" : 0,
            "target" : 34963
        },
        {
            "buffer" : 0,
            "byteLength" : 4536,
            "byteOffset" : 756,
            "target" : 34962
        },
        {
            "buffer" : 0,
            "byteLength" : 4536,
            "byteOffset" : 5292,
            "target" : 34962
        },
        {
            "buffer" : 0,
            "byteLength" : 6048,
            "byteOffset" : 9828,
            "target" : 34962
        },
        {
            "buffer" : 0,
            "byteLength" : 3024,
            "byteOffset" : 15876,
            "target" : 34962
        }
    ],
    "buffers" : [
        {
            "byteLength" : 18900,
            "uri" : "cloud-med.bin"
        }
    ],
    "materials" : [
        {
            "name" : "default",
            "pbrMetallicRoughness" : {
                "baseColorFactor" : [
                    0.6400000190734865,
                    0.6400000190734865,
                    0.6400000190734865,
                    1.0
                ],
                "metallicFactor" : 0.0
            }
        },
        {
            "name" : "Material.004",
            "pbrMetallicRoughness" : {
                "baseColorFactor" : [
                    0.11615894013880101,
                    0.640000066757203,
                    0.08936445250160174,
                    1.0
                ],
                "metallicFactor" : 0.0
            }
        }
    ],
    "meshes" : [
        {
            "name" : "cloud-med-mesh",
            "primitives" : [
                {
                    "attributes" : {
                        "NORMAL" : 2,
                        "POSITION" : 1,
                        "TANGENT" : 3,
                        "TEXCOORD_0" : 4
                    },
                    "indices" : 0,
                    "material" : 0
                }
            ]
        }
    ],
    "nodes" : [
        {
            "mesh" : 0,
            "name" : "cloud-med",
            "rotation" : [
                0.7071068286895752,
                0.0,
                -0.0,
                0.7071067094802856
            ],
            "scale" : [
                0.047383010387420654,
                0.047383010387420654,
                0.047383010387420654
            ],
            "translation" : [
                -0.47423887252807617,
                1.9714317321777344,
                -4.929917335510254
            ]
        }
    ],
    "scene" : 0,
    "scenes" : [
        {
            "name" : "World",
            "nodes" : [
                0
            ]
        }
    ]
}
