{
    "accessors" : [
        {
            "bufferView" : 0,
            "componentType" : 5123,
            "count" : 882,
            "max" : [
                881
            ],
            "min" : [
                0
            ],
            "type" : "SCALAR"
        },
        {
            "bufferView" : 1,
            "componentType" : 5126,
            "count" : 882,
            "max" : [
                -3.457775354385376,
                5.836975574493408,
                -3.0275726318359375
            ],
            "min" : [
                -5.00850248336792,
                4.799728870391846,
                -4.110487937927246
            ],
            "type" : "VEC3"
        },
        {
            "bufferView" : 2,
            "componentType" : 5126,
            "count" : 882,
            "max" : [
                0.9968012571334839,
                0.9912554621696472,
                0.9930322170257568
            ],
            "min" : [
                -0.9973964095115662,
                -0.9741941690444946,
                -0.9972296953201294
            ],
            "type" : "VEC3"
        },
        {
            "bufferView" : 3,
            "componentType" : 5126,
            "count" : 882,
            "max" : [
                0.9934593439102173,
                0.9990706443786621,
                0.7253543734550476,
                -1.0
            ],
            "min" : [
                -0.9996757507324219,
                -0.9985727071762085,
                -0.7563969492912292,
                -1.0
            ],
            "type" : "VEC4"
        },
        {
            "bufferView" : 4,
            "componentType" : 5126,
            "count" : 882,
            "max" : [
                1.0,
                0.9544315338134766
            ],
            "min" : [
                0.09467931091785431,
                0.033446550369262695
            ],
            "type" : "VEC2"
        }
    ],
    "asset" : {
        "generator" : "Khronos Blender glTF 2.0 exporter",
        "version" : "2.0"
    },
    "bufferViews" : [
        {
            "buffer" : 0,
            "byteLength" : 1764,
            "byteOffset" : 0,
            "target" : 34963
        },
        {
            "buffer" : 0,
            "byteLength" : 10584,
            "byteOffset" : 1764,
            "target" : 34962
        },
        {
            "buffer" : 0,
            "byteLength" : 10584,
            "byteOffset" : 12348,
            "target" : 34962
        },
        {
            "buffer" : 0,
            "byteLength" : 14112,
            "byteOffset" : 22932,
            "target" : 34962
        },
        {
            "buffer" : 0,
            "byteLength" : 7056,
            "byteOffset" : 37044,
            "target" : 34962
        }
    ],
    "buffers" : [
        {
            "byteLength" : 44100,
            "uri" : "cloud-large.bin"
        }
    ],
    "materials" : [
        {
            "name" : "default",
            "pbrMetallicRoughness" : {
                "baseColorFactor" : [
                    0.6400000190734865,
                    0.6400000190734865,
                    0.6400000190734865,
                    1.0
                ],
                "metallicFactor" : 0.0
            }
        },
        {
            "name" : "Material.004",
            "pbrMetallicRoughness" : {
                "baseColorFactor" : [
                    0.11615894013880101,
                    0.640000066757203,
                    0.08936445250160174,
                    1.0
                ],
                "metallicFactor" : 0.0
            }
        }
    ],
    "meshes" : [
        {
            "name" : "cloud-large-mesh",
            "primitives" : [
                {
                    "attributes" : {
                        "NORMAL" : 2,
                        "POSITION" : 1,
                        "TANGENT" : 3,
                        "TEXCOORD_0" : 4
                    },
                    "indices" : 0,
                    "material" : 0
                }
            ]
        }
    ],
    "nodes" : [
        {
            "mesh" : 0,
            "name" : "cloud-large",
            "rotation" : [
                0.7071068286895752,
                0.0,
                -0.0,
                0.7071067094802856
            ],
            "translation" : [
                3.8846704959869385,
                2.3029751777648926,
                -3.1629316806793213
            ]
        }
    ],
    "scene" : 0,
    "scenes" : [
        {
            "name" : "World",
            "nodes" : [
                0
            ]
        }
    ]
}
