{
    "accessors" : [
        {
            "bufferView" : 0,
            "componentType" : 5123,
            "count" : 537,
            "max" : [
                536
            ],
            "min" : [
                0
            ],
            "type" : "SCALAR"
        },
        {
            "bufferView" : 1,
            "componentType" : 5126,
            "count" : 537,
            "max" : [
                -1.8183377981185913,
                2.7541773319244385,
                0.43233543634414673
            ],
            "min" : [
                -6.946033000946045,
                -2.1923563480377197,
                -2.5894196033477783
            ],
            "type" : "VEC3"
        },
        {
            "bufferView" : 2,
            "componentType" : 5126,
            "count" : 537,
            "max" : [
                0.9463105201721191,
                0.9064260721206665,
                -0.0930725559592247
            ],
            "min" : [
                -0.9776259660720825,
                -0.9696395993232727,
                -0.9999850988388062
            ],
            "type" : "VEC3"
        },
        {
            "bufferView" : 3,
            "componentType" : 5126,
            "count" : 537,
            "max" : [
                0.9559171199798584,
                0.997057318687439,
                0.8649129271507263,
                -1.0
            ],
            "min" : [
                -0.9465393424034119,
                -0.9971677660942078,
                -0.7582026720046997,
                -1.0
            ],
            "type" : "VEC4"
        },
        {
            "bufferView" : 4,
            "componentType" : 5126,
            "count" : 537,
            "max" : [
                0.9524224996566772,
                0.9502460956573486
            ],
            "min" : [
                0.10279138386249542,
                0.14463818073272705
            ],
            "type" : "VEC2"
        }
    ],
    "asset" : {
        "generator" : "Khronos Blender glTF 2.0 exporter",
        "version" : "2.0"
    },
    "bufferViews" : [
        {
            "buffer" : 0,
            "byteLength" : 1074,
            "byteOffset" : 0,
            "target" : 34963
        },
        {
            "buffer" : 0,
            "byteLength" : 6444,
            "byteOffset" : 1076,
            "target" : 34962
        },
        {
            "buffer" : 0,
            "byteLength" : 6444,
            "byteOffset" : 7520,
            "target" : 34962
        },
        {
            "buffer" : 0,
            "byteLength" : 8592,
            "byteOffset" : 13964,
            "target" : 34962
        },
        {
            "buffer" : 0,
            "byteLength" : 4296,
            "byteOffset" : 22556,
            "target" : 34962
        }
    ],
    "buffers" : [
        {
            "byteLength" : 26852,
            "uri" : "mountain-small.bin"
        }
    ],
    "materials" : [
        {
            "name" : "default",
            "pbrMetallicRoughness" : {
                "baseColorFactor" : [
                    0.6400000190734865,
                    0.6400000190734865,
                    0.6400000190734865,
                    1.0
                ],
                "metallicFactor" : 0.0
            }
        },
        {
            "name" : "Material.001",
            "pbrMetallicRoughness" : {
                "baseColorFactor" : [
                    0.06582616665700325,
                    0.15569427245399758,
                    0.004145213278311688,
                    1.0
                ],
                "metallicFactor" : 0.0
            }
        },
        {
            "name" : "Material.002",
            "pbrMetallicRoughness" : {
                "baseColorFactor" : [
                    0.2904242320421968,
                    0.08120623947987315,
                    0.028155059041903296,
                    1.0
                ],
                "metallicFactor" : 0.0
            }
        },
        {
            "name" : "Material.006",
            "pbrMetallicRoughness" : {
                "baseColorFactor" : [
                    0.24559722312684684,
                    0.14234744522493248,
                    0.10622340599035329,
                    1.0
                ],
                "metallicFactor" : 0.0
            }
        },
        {
            "name" : "Material.007",
            "pbrMetallicRoughness" : {
                "baseColorFactor" : [
                    0.08497717507149538,
                    0.16877326024730888,
                    0.01422081163854616,
                    1.0
                ],
                "metallicFactor" : 0.0
            }
        },
        {
            "name" : "Material.008",
            "pbrMetallicRoughness" : {
                "baseColorFactor" : [
                    0.4568999835386869,
                    0.3010097071678892,
                    0.15025664791847237,
                    1.0
                ],
                "metallicFactor" : 0.0
            }
        },
        {
            "name" : "Material.009",
            "pbrMetallicRoughness" : {
                "baseColorFactor" : [
                    0.08954595460811188,
                    0.2001266509313382,
                    0.005209671783591385,
                    1.0
                ],
                "metallicFactor" : 0.0
            }
        },
        {
            "name" : "Material.012",
            "pbrMetallicRoughness" : {
                "baseColorFactor" : [
                    0.22031150192486493,
                    0.640000066757203,
                    0.6126782508593536,
                    1.0
                ],
                "metallicFactor" : 0.0
            }
        }
    ],
    "meshes" : [
        {
            "name" : "mountain-small-mesh",
            "primitives" : [
                {
                    "attributes" : {
                        "NORMAL" : 2,
                        "POSITION" : 1,
                        "TANGENT" : 3,
                        "TEXCOORD_0" : 4
                    },
                    "indices" : 0,
                    "material" : 5
                }
            ]
        }
    ],
    "nodes" : [
        {
            "mesh" : 0,
            "name" : "mountain-small",
            "rotation" : [
                0.7071068286895752,
                0.0,
                -0.0,
                0.7071067094802856
            ],
            "translation" : [
                -0.47423887252807617,
                1.9714317321777344,
                -0.8587204217910767
            ]
        }
    ],
    "scene" : 0,
    "scenes" : [
        {
            "name" : "World",
            "nodes" : [
                0
            ]
        }
    ]
}
