<svg xmlns="http://www.w3.org/2000/svg" viewBox="0 0 800 158.32"><defs><style>.cls-1{fill:#fff;}</style></defs><title>logo</title><g id="Layer_2" data-name="Layer 2"><g id="Layer_5" data-name="Layer 5"><path class="cls-1" d="M256.18,42.21a11.41,11.41,0,0,1,3.23,8.26V98.66q0,20.49-11.29,32.06T216,142.3q-20.86,0-32.06-11.58T172.7,98.66V50.47a11.41,11.41,0,0,1,3.23-8.26,11.69,11.69,0,0,1,16.32,0,11.44,11.44,0,0,1,3.22,8.26V98.66q0,11.58,5.12,17.17t15.37,5.6q10.44,0,15.56-5.6t5.12-17.17V50.47a11.37,11.37,0,0,1,3.23-8.26,11.68,11.68,0,0,1,16.31,0Z"/><path class="cls-1" d="M351.34,122.47a10.66,10.66,0,0,1,0,14.89,10.3,10.3,0,0,1-7.59,3H282.66a9.6,9.6,0,0,1-7.31-3.13,9.7,9.7,0,0,1-2.94-6.74,16.44,16.44,0,0,1,.76-5.4,19.79,19.79,0,0,1,2.84-5l45.16-58.44H284.36A10.36,10.36,0,0,1,273.74,51a9.78,9.78,0,0,1,3-7.31,10.5,10.5,0,0,1,7.59-2.94H342.8a9.69,9.69,0,0,1,7.11,2.94A9.93,9.93,0,0,1,352.85,51a17.75,17.75,0,0,1-.56,4.83,14.44,14.44,0,0,1-2.66,4.65l-45.54,59h39.66A10.5,10.5,0,0,1,351.34,122.47Z"/><path class="cls-1" d="M370.63,24.47Q368,22.39,368,17.08V13.47c0-3.54.94-6,2.84-7.4S375.75,4,379.93,4q6.63,0,9.3,2.09t2.65,7.4v3.61c0,3.67-.92,6.16-2.75,7.49s-5,2-9.39,2S372.4,25.87,370.63,24.47Zm17.46,112.61a11.69,11.69,0,0,1-16.32,0,11.36,11.36,0,0,1-3.22-8.25V50.47a11.4,11.4,0,0,1,3.22-8.26,11.69,11.69,0,0,1,16.32,0,11.4,11.4,0,0,1,3.22,8.26v78.36A11.36,11.36,0,0,1,388.09,137.08Z"/><path class="cls-1" d="M432,137.08a11.2,11.2,0,0,1-8.25,3.32,10.69,10.69,0,0,1-8-3.32,11.36,11.36,0,0,1-3.22-8.25V11.57A11.34,11.34,0,0,1,424.1,0a10.69,10.69,0,0,1,8,3.32,11.38,11.38,0,0,1,3.22,8.25V128.83A11.16,11.16,0,0,1,432,137.08Z"/><path class="cls-1" d="M547.14,40.22a11.31,11.31,0,0,1,3.23,8.35v80.26a11.37,11.37,0,0,1-3.23,8.25A10.9,10.9,0,0,1,539,140.4a10.71,10.71,0,0,1-8.07-3.23A11.91,11.91,0,0,1,527.6,129a41.16,41.16,0,0,1-29.79,13.28,43.37,43.37,0,0,1-23.71-6.74,47.16,47.16,0,0,1-16.79-18.69,58.2,58.2,0,0,1-6.17-27.13,59.59,59.59,0,0,1,6.07-27.22,46.63,46.63,0,0,1,16.6-18.79A42.26,42.26,0,0,1,497.05,37a44,44,0,0,1,17.08,3.32,44.72,44.72,0,0,1,13.47,8.44v-.19a11.33,11.33,0,0,1,3.23-8.25A10.89,10.89,0,0,1,539,37,11,11,0,0,1,547.14,40.22Zm-26.37,72.19q7.79-9,7.78-22.67T520.77,67a26.56,26.56,0,0,0-40,0Q473,76.09,473,89.74t7.68,22.67q7.69,9,20,9A25.34,25.34,0,0,0,520.77,112.41Z"/><path class="cls-1" d="M651,48.48q7.41,11.48,7.4,31.78v48.57a11.36,11.36,0,0,1-3.22,8.25,11.69,11.69,0,0,1-16.32,0,11.37,11.37,0,0,1-3.23-8.25V80.26q0-10.44-4.36-16.42t-15-6q-11,0-17.26,6.35a21.89,21.89,0,0,0-6.26,16v48.57a11.37,11.37,0,0,1-3.23,8.25,11.69,11.69,0,0,1-16.32,0,11.36,11.36,0,0,1-3.22-8.25V50.47a11.4,11.4,0,0,1,3.22-8.26,11.69,11.69,0,0,1,16.32,0,11.41,11.41,0,0,1,3.23,8.26v3.22a45.82,45.82,0,0,1,13.37-11.76A34.64,34.64,0,0,1,624.27,37Q643.62,37,651,48.48Z"/><path class="cls-1" d="M153.18,19a10.92,10.92,0,0,0-3.51-8.25,11.67,11.67,0,0,0-8.26-3.32,10.63,10.63,0,0,0-5.22,1.42,11.55,11.55,0,0,0-4.07,3.7L89.62,76.08,48.26,12.52a11.06,11.06,0,0,0-4.37-3.7A12.6,12.6,0,0,0,38.2,7.4a11.69,11.69,0,0,0-8.44,3.41A11,11,0,0,0,26.25,19V122.73a45.56,45.56,0,0,0-9.51,3.58C4.27,132.57-2.77,143.78,1,151.35s17.72,9.89,29.47,2.34c7.68-4.93,14.12-13.17,16.54-19.58a11.89,11.89,0,0,0,.85-3,9.4,9.4,0,0,0,.17-2.12c0-.06,0-.12,0-.17V50.66l31.3,49.52a16.32,16.32,0,0,0,4.36,3.7,8.43,8.43,0,0,0,4.94,1.23,8.75,8.75,0,0,0,5.12-1.23,16.32,16.32,0,0,0,4.36-3.7l31.31-47.81v69.37a27.61,27.61,0,0,0-7.39,2.56c-12.48,6.26-19.52,17.47-15.72,25s17.21,9,29.47,2.35c9.43-5.15,15.25-13.44,16.81-19.13a12.46,12.46,0,0,0,.55-3.73Z"/><path class="cls-1" d="M796.94,4.25c-19.33-.83-30.21-3.08-33.23-3.78l-.41-.1-.46-.12h0A13.15,13.15,0,0,0,760.22,0a10.91,10.91,0,0,0-8.16,3.32,11.38,11.38,0,0,0-3.23,8.25V48.76a44.72,44.72,0,0,0-13.47-8.44A44,44,0,0,0,718.29,37,42.27,42.27,0,0,0,695,43.73a46.63,46.63,0,0,0-16.6,18.79,59.59,59.59,0,0,0-6.07,27.22,58.32,58.32,0,0,0,6.17,27.13,47.16,47.16,0,0,0,16.79,18.69A43.37,43.37,0,0,0,719,142.3,41.12,41.12,0,0,0,748.83,129a12,12,0,0,0,3.32,8.15,10.73,10.73,0,0,0,8.07,3.23,10.9,10.9,0,0,0,8.15-3.32,11.37,11.37,0,0,0,3.23-8.25V21.4a173.46,173.46,0,0,0,24,1.9A4.3,4.3,0,0,0,800,19V7.36A3.14,3.14,0,0,0,796.94,4.25ZM742,112.41a25.34,25.34,0,0,1-20.11,9q-12.33,0-20-9t-7.68-22.67q0-13.67,7.78-22.77a26.56,26.56,0,0,1,40,0q7.79,9.12,7.78,22.77T742,112.41Z"/></g></g></svg>