{
    "accessors" : [
        {
            "bufferView" : 0,
            "componentType" : 5123,
            "count" : 264,
            "max" : [
                191
            ],
            "min" : [
                0
            ],
            "type" : "SCALAR"
        },
        {
            "bufferView" : 1,
            "componentType" : 5126,
            "count" : 192,
            "max" : [
                0.6374529004096985,
                -1.946557879447937,
                -0.6277548670768738
            ],
            "min" : [
                -0.7990030646324158,
                -3.6919546127319336,
                -2.7630486488342285
            ],
            "type" : "VEC3"
        },
        {
            "bufferView" : 2,
            "componentType" : 5126,
            "count" : 192,
            "max" : [
                0.9281852841377258,
                0.847103476524353,
                0.997107744216919
            ],
            "min" : [
                -0.8752782344818115,
                -0.8575078845024109,
                -0.6120958924293518
            ],
            "type" : "VEC3"
        },
        {
            "bufferView" : 3,
            "componentType" : 5126,
            "count" : 192,
            "max" : [
                0.9473016858100891,
                0.9427669644355774,
                0.7862207293510437,
                -1.0
            ],
            "min" : [
                -0.9415741562843323,
                -0.9995312690734863,
                -0.7169145345687866,
                -1.0
            ],
            "type" : "VEC4"
        },
        {
            "bufferView" : 4,
            "componentType" : 5126,
            "count" : 192,
            "max" : [
                0.9482457041740417,
                0.9522019624710083
            ],
            "min" : [
                0.2932797074317932,
                0.11045539379119873
            ],
            "type" : "VEC2"
        },
        {
            "bufferView" : 5,
            "componentType" : 5123,
            "count" : 84,
            "max" : [
                55
            ],
            "min" : [
                0
            ],
            "type" : "SCALAR"
        },
        {
            "bufferView" : 6,
            "componentType" : 5126,
            "count" : 56,
            "max" : [
                0.07052227854728699,
                -2.6074869632720947,
                0.3079219460487366
            ],
            "min" : [
                -0.3392782509326935,
                -2.9736359119415283,
                -0.9442211985588074
            ],
            "type" : "VEC3"
        },
        {
            "bufferView" : 7,
            "componentType" : 5126,
            "count" : 56,
            "max" : [
                0.9431638121604919,
                0.9445181488990784,
                0.9976528882980347
            ],
            "min" : [
                -0.9369649291038513,
                -0.9492459893226624,
                -0.9976387619972229
            ],
            "type" : "VEC3"
        },
        {
            "bufferView" : 8,
            "componentType" : 5126,
            "count" : 56,
            "max" : [
                0.9461908340454102,
                0.9466244578361511,
                0.07628040015697479,
                -1.0
            ],
            "min" : [
                -0.943104088306427,
                -0.9419282078742981,
                -0.06816049665212631,
                -1.0
            ],
            "type" : "VEC4"
        },
        {
            "bufferView" : 9,
            "componentType" : 5126,
            "count" : 56,
            "max" : [
                0.9818912744522095,
                0.8278340101242065
            ],
            "min" : [
                0.7591190934181213,
                0.2889959216117859
            ],
            "type" : "VEC2"
        }
    ],
    "asset" : {
        "generator" : "Khronos Blender glTF 2.0 exporter",
        "version" : "2.0"
    },
    "bufferViews" : [
        {
            "buffer" : 0,
            "byteLength" : 528,
            "byteOffset" : 0,
            "target" : 34963
        },
        {
            "buffer" : 0,
            "byteLength" : 2304,
            "byteOffset" : 528,
            "target" : 34962
        },
        {
            "buffer" : 0,
            "byteLength" : 2304,
            "byteOffset" : 2832,
            "target" : 34962
        },
        {
            "buffer" : 0,
            "byteLength" : 3072,
            "byteOffset" : 5136,
            "target" : 34962
        },
        {
            "buffer" : 0,
            "byteLength" : 1536,
            "byteOffset" : 8208,
            "target" : 34962
        },
        {
            "buffer" : 0,
            "byteLength" : 168,
            "byteOffset" : 9744,
            "target" : 34963
        },
        {
            "buffer" : 0,
            "byteLength" : 672,
            "byteOffset" : 9912,
            "target" : 34962
        },
        {
            "buffer" : 0,
            "byteLength" : 672,
            "byteOffset" : 10584,
            "target" : 34962
        },
        {
            "buffer" : 0,
            "byteLength" : 896,
            "byteOffset" : 11256,
            "target" : 34962
        },
        {
            "buffer" : 0,
            "byteLength" : 448,
            "byteOffset" : 12152,
            "target" : 34962
        }
    ],
    "buffers" : [
        {
            "byteLength" : 12600,
            "uri" : "tree-large.bin"
        }
    ],
    "materials" : [
        {
            "name" : "Material.001",
            "pbrMetallicRoughness" : {
                "baseColorFactor" : [
                    0.06582616665700325,
                    0.15569427245399758,
                    0.004145213278311688,
                    1.0
                ],
                "metallicFactor" : 0.0
            }
        },
        {
            "name" : "Material.002",
            "pbrMetallicRoughness" : {
                "baseColorFactor" : [
                    0.2904242320421968,
                    0.08120623947987315,
                    0.028155059041903296,
                    1.0
                ],
                "metallicFactor" : 0.0
            }
        }
    ],
    "meshes" : [
        {
            "name" : "three-large-mesh",
            "primitives" : [
                {
                    "attributes" : {
                        "NORMAL" : 2,
                        "POSITION" : 1,
                        "TANGENT" : 3,
                        "TEXCOORD_0" : 4
                    },
                    "indices" : 0,
                    "material" : 0
                },
                {
                    "attributes" : {
                        "NORMAL" : 7,
                        "POSITION" : 6,
                        "TANGENT" : 8,
                        "TEXCOORD_0" : 9
                    },
                    "indices" : 5,
                    "material" : 1
                }
            ]
        }
    ],
    "nodes" : [
        {
            "mesh" : 0,
            "name" : "three-large",
            "rotation" : [
                0.7071068286895752,
                0.0,
                -0.0,
                0.7071067094802856
            ],
            "translation" : [
                0.5269451141357422,
                1.9977967739105225,
                4.808982849121094
            ]
        }
    ],
    "scene" : 0,
    "scenes" : [
        {
            "name" : "World",
            "nodes" : [
                0
            ]
        }
    ]
}
