{
    "accessors" : [
        {
            "bufferView" : 0,
            "componentType" : 5123,
            "count" : 198,
            "max" : [
                143
            ],
            "min" : [
                0
            ],
            "type" : "SCALAR"
        },
        {
            "bufferView" : 1,
            "componentType" : 5126,
            "count" : 144,
            "max" : [
                1.9877849817276,
                -1.6050236225128174,
                -0.20901994407176971
            ],
            "min" : [
                0.8911806344985962,
                -3.0128355026245117,
                -1.6707828044891357
            ],
            "type" : "VEC3"
        },
        {
            "bufferView" : 2,
            "componentType" : 5126,
            "count" : 144,
            "max" : [
                0.9917940497398376,
                0.8425778150558472,
                0.9727817177772522
            ],
            "min" : [
                -0.8444729447364807,
                -0.9296556711196899,
                -0.8138673305511475
            ],
            "type" : "VEC3"
        },
        {
            "bufferView" : 3,
            "componentType" : 5126,
            "count" : 144,
            "max" : [
                0.9952554106712341,
                0.9980508685112,
                0.7904669046401978,
                -1.0
            ],
            "min" : [
                -0.9844226241111755,
                -0.9089017510414124,
                -0.6983276009559631,
                -1.0
            ],
            "type" : "VEC4"
        },
        {
            "bufferView" : 4,
            "componentType" : 5126,
            "count" : 144,
            "max" : [
                0.9479882121086121,
                0.9569453001022339
            ],
            "min" : [
                0.003320199903100729,
                0.0
            ],
            "type" : "VEC2"
        },
        {
            "bufferView" : 5,
            "componentType" : 5123,
            "count" : 84,
            "max" : [
                55
            ],
            "min" : [
                0
            ],
            "type" : "SCALAR"
        },
        {
            "bufferView" : 6,
            "componentType" : 5126,
            "count" : 56,
            "max" : [
                1.5566924810409546,
                -2.149247646331787,
                0.24242977797985077
            ],
            "min" : [
                1.1963235139846802,
                -2.4097654819488525,
                -0.5860931873321533
            ],
            "type" : "VEC3"
        },
        {
            "bufferView" : 7,
            "componentType" : 5126,
            "count" : 56,
            "max" : [
                0.9394442439079285,
                0.8557844758033752,
                0.9742189049720764
            ],
            "min" : [
                -0.9275864362716675,
                -0.8601087331771851,
                -0.9762518405914307
            ],
            "type" : "VEC3"
        },
        {
            "bufferView" : 8,
            "componentType" : 5126,
            "count" : 56,
            "max" : [
                0.863030731678009,
                0.944080114364624,
                0.017054228112101555,
                -1.0
            ],
            "min" : [
                -0.9402663707733154,
                -0.9456655979156494,
                -0.18635277450084686,
                -1.0
            ],
            "type" : "VEC4"
        },
        {
            "bufferView" : 9,
            "componentType" : 5126,
            "count" : 56,
            "max" : [
                0.9482457041740417,
                0.8362232446670532
            ],
            "min" : [
                0.5961948037147522,
                0.17627573013305664
            ],
            "type" : "VEC2"
        }
    ],
    "asset" : {
        "generator" : "Khronos Blender glTF 2.0 exporter",
        "version" : "2.0"
    },
    "bufferViews" : [
        {
            "buffer" : 0,
            "byteLength" : 396,
            "byteOffset" : 0,
            "target" : 34963
        },
        {
            "buffer" : 0,
            "byteLength" : 1728,
            "byteOffset" : 396,
            "target" : 34962
        },
        {
            "buffer" : 0,
            "byteLength" : 1728,
            "byteOffset" : 2124,
            "target" : 34962
        },
        {
            "buffer" : 0,
            "byteLength" : 2304,
            "byteOffset" : 3852,
            "target" : 34962
        },
        {
            "buffer" : 0,
            "byteLength" : 1152,
            "byteOffset" : 6156,
            "target" : 34962
        },
        {
            "buffer" : 0,
            "byteLength" : 168,
            "byteOffset" : 7308,
            "target" : 34963
        },
        {
            "buffer" : 0,
            "byteLength" : 672,
            "byteOffset" : 7476,
            "target" : 34962
        },
        {
            "buffer" : 0,
            "byteLength" : 672,
            "byteOffset" : 8148,
            "target" : 34962
        },
        {
            "buffer" : 0,
            "byteLength" : 896,
            "byteOffset" : 8820,
            "target" : 34962
        },
        {
            "buffer" : 0,
            "byteLength" : 448,
            "byteOffset" : 9716,
            "target" : 34962
        }
    ],
    "buffers" : [
        {
            "byteLength" : 10164,
            "uri" : "tree-small.bin"
        }
    ],
    "materials" : [
        {
            "name" : "Material.001",
            "pbrMetallicRoughness" : {
                "baseColorFactor" : [
                    0.06582616665700325,
                    0.15569427245399758,
                    0.004145213278311688,
                    1.0
                ],
                "metallicFactor" : 0.0
            }
        },
        {
            "name" : "Material.002",
            "pbrMetallicRoughness" : {
                "baseColorFactor" : [
                    0.2904242320421968,
                    0.08120623947987315,
                    0.028155059041903296,
                    1.0
                ],
                "metallicFactor" : 0.0
            }
        }
    ],
    "meshes" : [
        {
            "name" : "three-small-mesh",
            "primitives" : [
                {
                    "attributes" : {
                        "NORMAL" : 2,
                        "POSITION" : 1,
                        "TANGENT" : 3,
                        "TEXCOORD_0" : 4
                    },
                    "indices" : 0,
                    "material" : 0
                },
                {
                    "attributes" : {
                        "NORMAL" : 7,
                        "POSITION" : 6,
                        "TANGENT" : 8,
                        "TEXCOORD_0" : 9
                    },
                    "indices" : 5,
                    "material" : 1
                }
            ]
        }
    ],
    "nodes" : [
        {
            "mesh" : 0,
            "name" : "three-small",
            "rotation" : [
                0.7071068286895752,
                0.0,
                -0.0,
                0.7071067094802856
            ],
            "translation" : [
                0.7018740177154541,
                2.050936460494995,
                5.657577991485596
            ]
        }
    ],
    "scene" : 0,
    "scenes" : [
        {
            "name" : "World",
            "nodes" : [
                0
            ]
        }
    ]
}
